<?xml version="1.0" encoding="UTF-8"?>
<svg id="Layer_1" data-name="Layer 1" xmlns="http://www.w3.org/2000/svg" viewBox="0 0 157.55 138.83">
  <defs>
    <style>
      .cls-1 {
        fill: none;
        stroke: #1c6798;
        stroke-miterlimit: 10;
      }

      .cls-2 {
        fill: #1c6798;
      }
    </style>
  </defs>
  <g>
    <path class="cls-2" d="M129.4,61.96h-9.97v19.89s-.02,4.3-3.01,4.3-4.69-.01-4.69-.01c0,0,2.3-.68,2.3-4.21v-15.58h-9.76v-6.16s.57-3.4,5.9-3.4h15.22s4.01,1.27,4.01,5.15Z"/>
    <path class="cls-2" d="M84.5,62.25h-9.97v19.89s-.02,4.3-3.01,4.3-4.69-.01-4.69-.01c0,0,2.3-.68,2.3-4.21v-15.58h-9.76v-6.16s.57-3.4,5.9-3.4h15.22s4.01,1.27,4.01,5.15Z"/>
    <g>
      <g>
        <polyline class="cls-1" points="104.61 55.63 80.01 19.5 46.28 69.31"/>
        <polyline class="cls-1" points="36.26 84.04 26.86 97.6 132.64 97.31 120.81 79.06"/>
        <line class="cls-1" x1="128.84" y1="56.91" x2="108.18" y2="56.91"/>
        <line class="cls-1" x1="109.53" y1="61.84" x2="132.88" y2="61.84"/>
        <line class="cls-1" x1="119.39" y1="61.74" x2="119.39" y2="82.68"/>
        <path class="cls-1" d="M114.03,61.74v21.53c0,1.99-1.62,3.61-3.61,3.61h0c-3.92,0-7.1-3.18-7.1-7.1v-7.56"/>
        <path class="cls-1" d="M111.28,81.98h0c-2.26-.14-4.01-2.01-4.01-4.27v-7.44c0-2.4-1.95-4.35-4.35-4.35h-5.46v16.44h-15.81l-.03,4.44h15.67c3.34,0,6.04-2.71,6.04-6.04v-1.19"/>
        <path class="cls-1" d="M97.45,71.92v-.32c0-2.67-2.17-4.84-4.84-4.84h0v15.15"/>
        <line class="cls-1" x1="64.48" y1="62.15" x2="87.83" y2="62.15"/>
        <line class="cls-1" x1="63.19" y1="57.12" x2="83.41" y2="57.12"/>
        <polyline class="cls-1" points="59.38 60.25 59.38 66.66 69.15 66.66"/>
        <path class="cls-1" d="M74.53,62.62v20.57c0,1.8-1.46,3.26-3.26,3.26h-4.44s2.3-.56,2.31-4.35,0-19.63,0-19.63"/>
        <path class="cls-1" d="M69.15,81.52h-11.85v-5.09h.97c2.64,0,4.79,2.14,4.79,4.79h0"/>
        <path class="cls-1" d="M67.58,81.52v-.95c0-5.05-4.09-9.14-9.14-9.14h-1.28c-2.41,0-4.36,1.95-4.36,4.36v7.27c0,1.94,1.57,3.51,3.51,3.51h11.27v.37c0,2.52-2.04,4.56-4.56,4.56h-6.89c-4.95,0-8.96-4.01-8.96-8.96v-1.66c0-2.69-2.18-4.87-4.87-4.87h0v5.23h4.57"/>
        <path class="cls-1" d="M47.16,86.57h-6.16c-2.05,0-3.71-1.66-3.71-3.71v-5.98c0-3.01,2.44-5.45,5.45-5.45h.02c5.54,0,10.03,4.49,10.03,10.03h0"/>
        <path class="cls-1" d="M81.65,72.95h-4.92v14.51s-.64,4.76-4.67,4.76h6.7s2.85-.99,2.85-5.43,.04-13.84,.04-13.84Z"/>
        <circle class="cls-1" cx="89.47" cy="90.4" r="2.39"/>
        <circle class="cls-1" cx="103.8" cy="90.4" r="2.39"/>
        <circle class="cls-1" cx="84.36" cy="90.4" r="2.39"/>
      </g>
      <polyline class="cls-1" points="104.27 60.01 104.27 66.1 113.62 66.1"/>
    </g>
    <path class="cls-2" d="M54.78,107.06c-.09,.18,.07,.5-.35,.47-.56-.05-.46,.04-.46-.48,0-1.95,0-3.9-.01-5.85,0-.36,.17-.34,.42-.35,.26,0,.43,0,.41,.35-.03,.64,0,1.28,0,2,.6-.63,1.27-.73,2.01-.49,.68,.22,1.06,.74,1.22,1.39,.23,.92,.21,1.83-.35,2.67-.61,.92-2.09,1.15-2.76,.36-.03-.03-.08-.05-.13-.07Zm2.53-1.98c-.03-.3-.04-.58-.11-.86-.14-.51-.56-.91-1.03-.96-.51-.05-.99,.23-1.22,.75-.32,.7-.3,1.43-.05,2.14,.15,.43,.47,.71,.93,.78,.5,.07,.87-.14,1.16-.54,.29-.4,.29-.87,.32-1.3Z"/>
    <path class="cls-2" d="M43.97,107.47c-.81,.13-.82,.12-1-.54-.61,.53-1.31,.73-2.1,.66-.66-.07-1.18-.48-1.28-1.1-.11-.66,.22-1.27,.85-1.53,.47-.2,.98-.2,1.46-.29,.24-.05,.48-.11,.72-.13,.29-.02,.33-.17,.31-.41-.04-.43-.23-.66-.64-.79-.79-.23-1.36,0-1.74,.68-.18,.33-.48,.09-.71,.05-.27-.04-.07-.24-.03-.34,.18-.51,.53-.85,1.07-1,.65-.18,1.3-.2,1.94-.01,.6,.18,.89,.54,.91,1.17,.02,.61,.01,1.22,.02,1.83,.01,.59-.03,1.19,.22,1.76Zm-1.07-2.37c-.61,.26-1.26,.23-1.87,.41-.41,.12-.61,.37-.59,.72,.01,.36,.25,.61,.67,.7,1.13,.24,1.87-.49,1.79-1.83Z"/>
    <path class="cls-2" d="M133.99,103.22c.46-.48,.95-.65,1.53-.63,.93,.03,1.51,.53,1.54,1.46,.04,1.08,.01,2.17,.02,3.25,0,.16-.05,.22-.21,.21-.11,0-.22-.01-.33,0-.23,.03-.29-.06-.29-.28,.01-.93,0-1.85,0-2.78,0-.46-.1-.9-.58-1.08-.5-.19-.96-.06-1.35,.31-.28,.27-.32,.62-.33,.98-.01,.84-.03,1.68,0,2.52,.01,.38-.19,.33-.43,.34-.25,0-.42,.02-.42-.34,.02-1.99,.02-3.97,0-5.96,0-.39,.19-.35,.44-.36,.28-.01,.42,.04,.4,.37-.03,.64,0,1.28,0,2Z"/>
    <path class="cls-2" d="M92.06,104.65c.44-.44,.8-.81,1.16-1.18,.05-.05,.11-.1,.15-.16,.4-.54,.91-.77,1.6-.59,.03,.1-.09,.14-.15,.2-.44,.44-.88,.88-1.34,1.3-.21,.19-.24,.32-.07,.57,.56,.79,1.09,1.61,1.63,2.42,.05,.08,.1,.16,.19,.3-.32,0-.6,0-.87,0-.16,0-.2-.11-.27-.21-.44-.68-.89-1.36-1.33-2.05-.1-.15-.15-.18-.29-.05-.27,.25-.47,.49-.42,.9,.05,.37,0,.76,.01,1.13,.01,.24-.08,.29-.29,.28-.65-.02-.51,.06-.52-.52,0-.35,0-.71,0-1.06,0-1.59,.01-3.17,0-4.76,0-.34,.16-.34,.4-.33,.23,0,.45-.06,.44,.33-.03,1,0,2,0,3v.47Z"/>
    <path class="cls-2" d="M30.19,107.48c-.06,.02-.07,.03-.08,.03-.62,.11-1.07-.06-1.37-.67-.27-.55-.67-1.05-1-1.57-.11-.17-.17-.17-.32-.04-.29,.25-.43,.52-.39,.91,.04,.37,0,.76,.01,1.13,0,.18-.04,.28-.24,.25-.08-.01-.17-.01-.26,0-.26,.04-.33-.07-.32-.32,.01-1.52,0-3.05,0-4.57,0-.5,0-1,0-1.5,0-.21,.07-.27,.27-.27,.54,0,.54-.02,.54,.54,0,1.05,0,2.09,0,3.23,.41-.41,.76-.76,1.12-1.11,.12-.12,.24-.24,.36-.36,.53-.52,.61-.55,1.34-.43-.41,.44-.83,.92-1.28,1.38-.39,.4-.39,.39-.09,.84,.57,.84,1.12,1.68,1.7,2.55Z"/>
    <path class="cls-2" d="M120.94,107.6c-1.19-.02-1.96-.66-2.18-1.85-.13-.74-.1-1.46,.29-2.13,.52-.88,1.34-1.11,2.29-1.01,.85,.09,1.53,.7,1.76,1.53,.19,.7,.16,1.4-.05,2.09-.25,.83-1.12,1.38-2.12,1.37Zm1.44-2.57c0-.09,0-.23-.02-.38-.09-.79-.63-1.35-1.31-1.39-.71-.03-1.29,.43-1.43,1.2-.09,.45-.1,.92,.02,1.38,.19,.71,.69,1.1,1.36,1.09,.65,0,1.11-.41,1.3-1.12,.06-.24,.07-.48,.08-.79Z"/>
    <path class="cls-2" d="M106.79,107.6c-1.23-.02-2.01-.69-2.18-1.91-.11-.8-.08-1.58,.42-2.28,.47-.65,1.47-.98,2.37-.75,.87,.22,1.51,.9,1.62,1.73,.07,.49,.06,.97,0,1.46-.14,1.04-1.07,1.77-2.22,1.76Zm-1.38-2.53c0,.28,.02,.56,.09,.83,.16,.61,.67,1.03,1.3,1.03,.63,0,1.17-.4,1.33-1,.14-.55,.15-1.11,0-1.66-.26-.99-1.47-1.33-2.22-.64-.43,.39-.47,.91-.49,1.44Z"/>
    <path class="cls-2" d="M79.9,103.34c.62-.8,.93-.89,1.65-.62,.22,.08,.25,.18,.15,.37-.05,.1-.09,.2-.13,.3-.05,.14-.11,.18-.27,.13-.75-.21-1.2,.11-1.27,.89-.09,.92-.05,1.85-.04,2.77,0,.39-.22,.32-.44,.32-.22,0-.41,.06-.41-.31,.02-1.38,.02-2.75,0-4.13,0-.29,.05-.4,.37-.4,.3,0,.43,.07,.38,.38-.01,.07,0,.14,0,.28Z"/>
    <path class="cls-2" d="M68.96,105.13c0,.7-.02,1.39,0,2.09,.01,.38-.22,.3-.43,.3-.21,0-.43,.08-.42-.3,.02-1.41,.01-2.83,0-4.24,0-.23,.08-.29,.29-.29,.66,.02,.54-.05,.54,.54,0,.63,0,1.27,0,1.9Z"/>
    <path class="cls-2" d="M68.95,101.36c.09,.34-.04,.43-.4,.45-.47,.03-.41-.22-.43-.53-.02-.35,.09-.44,.44-.45,.44-.02,.45,.2,.39,.52Z"/>
  </g>
  <g>
    <path class="cls-2" d="M26.45,124.44c-.24,0-.49-.04-.73-.13s-.47-.21-.67-.37c-.2-.16-.37-.35-.49-.58-.13-.23-.19-.49-.19-.78,0-.61,.26-1.24,.79-1.89,.04-.05,.08-.09,.1-.13,.03-.03,.05-.06,.08-.09s.05-.05,.07-.07l.08-.08-.27-.24,.89-1.11c.15,.12,.33,.27,.54,.47,.21,.2,.46,.45,.74,.75,.77,.9,1.16,1.7,1.16,2.4,0,.3-.06,.57-.18,.8-.12,.23-.28,.43-.48,.58-.2,.16-.42,.27-.67,.35-.25,.08-.51,.12-.76,.12Zm.87-1.86c0-.09-.03-.2-.09-.32-.06-.12-.14-.24-.24-.37-.1-.13-.21-.26-.32-.39-.12-.13-.24-.26-.36-.38-.08,.09-.17,.19-.26,.31-.09,.11-.17,.23-.25,.36-.07,.13-.14,.26-.18,.4-.05,.14-.07,.27-.06,.4,0,.07,.04,.14,.1,.19,.07,.06,.14,.1,.24,.13,.09,.03,.19,.06,.29,.08,.1,.02,.19,.02,.26,.02,.09,0,.19,0,.29-.02s.2-.04,.28-.07c.09-.03,.16-.08,.21-.13,.06-.05,.08-.12,.08-.2Z"/>
    <path class="cls-2" d="M28.84,126.25c.42-.09,.81-.19,1.15-.32s.65-.27,.91-.43c.26-.16,.48-.33,.65-.51,.17-.18,.29-.36,.37-.55-.13,0-.26,0-.41,0-.14,0-.26-.01-.35-.02-.3-.02-.56-.08-.81-.17-.24-.09-.45-.21-.63-.37-.18-.16-.31-.35-.41-.57s-.14-.48-.14-.78c0-.19,.02-.38,.06-.57,.04-.19,.09-.38,.17-.57s.16-.36,.27-.52c.11-.16,.23-.31,.37-.43,.14-.12,.29-.22,.46-.29,.17-.07,.34-.11,.54-.11,.23,0,.44,.04,.63,.13s.37,.2,.53,.34c.16,.14,.3,.31,.43,.5,.12,.19,.23,.4,.32,.62s.17,.45,.22,.68c.06,.24,.1,.47,.12,.7h.19v1.44h-.29c-.12,.45-.3,.85-.56,1.22-.26,.36-.56,.68-.92,.95-.36,.27-.75,.49-1.19,.67-.44,.18-.89,.3-1.36,.37l-.33-1.4Zm2.2-4.78c-.06-.01-.13,0-.22,.07s-.16,.13-.22,.23c-.07,.1-.13,.2-.17,.32-.05,.12-.07,.23-.07,.33,0,.1,.04,.19,.1,.26,.06,.07,.14,.12,.24,.17s.21,.08,.33,.1c.12,.02,.25,.04,.37,.05,.12,0,.24,.01,.35,.01h.28c-.04-.19-.1-.37-.16-.54-.06-.17-.13-.33-.21-.47-.08-.14-.17-.25-.27-.34-.1-.09-.22-.15-.34-.17Z"/>
    <path class="cls-2" d="M33.3,122.99h.43c.17,0,.35,0,.53,0,.18,0,.36-.02,.52-.04,.17-.02,.32-.06,.46-.11s.25-.12,.34-.21c.09-.09,.15-.21,.17-.35,.03-.14,.01-.32-.05-.53-.02-.08-.07-.17-.13-.28s-.15-.23-.26-.36-.22-.27-.36-.41c-.13-.14-.28-.29-.43-.44-.15-.15-.31-.3-.48-.45-.17-.15-.33-.3-.5-.44l.14-1.24,3.77-1.71,.54,1.22-2.98,1.41c.15,.1,.3,.23,.45,.37,.16,.14,.31,.3,.45,.47,.15,.17,.28,.35,.41,.54s.24,.38,.34,.58,.17,.4,.23,.6c.06,.2,.08,.4,.08,.59,0,.32-.06,.61-.17,.88-.11,.27-.27,.51-.47,.71s-.44,.36-.72,.47c-.28,.11-.58,.17-.91,.17h-1.4v-1.44Z"/>
    <path class="cls-2" d="M41.18,124.44c-.07,0-.15,0-.26-.01-.11,0-.23-.04-.37-.1-.07,.38-.19,.74-.37,1.07-.18,.34-.4,.66-.67,.95s-.57,.57-.91,.82-.7,.47-1.09,.67l-.82-1.15c.21-.11,.43-.23,.64-.36s.42-.27,.62-.41,.38-.29,.55-.45c.17-.16,.32-.32,.44-.49,.13-.17,.22-.34,.3-.51s.11-.35,.11-.53c0-.12-.02-.27-.07-.45-.04-.18-.1-.38-.17-.59-.07-.21-.15-.42-.23-.63s-.16-.41-.24-.58l1.3-.57c.12,.36,.23,.67,.34,.91,.11,.24,.21,.44,.32,.58s.2,.25,.29,.31c.09,.06,.19,.09,.28,.09h.11v1.44h-.09Z"/>
    <path class="cls-2" d="M45.09,122.99v1.44h-.1c-.14,0-.28-.01-.42-.04s-.27-.06-.39-.1c-.12-.04-.24-.1-.34-.16-.1-.06-.19-.13-.27-.2-.14,.11-.3,.2-.48,.26-.18,.06-.37,.11-.57,.15-.2,.03-.41,.06-.62,.07-.21,.01-.42,.02-.63,.02h-.17v-1.44h.17c.22,0,.41,0,.58-.02s.32-.03,.44-.06c.13-.03,.23-.07,.32-.12,.09-.05,.16-.11,.21-.19,.07-.1,.11-.21,.13-.32,.02-.12,.02-.24,0-.37-.01-.13-.04-.25-.07-.38-.03-.13-.06-.25-.09-.36l1.3-.38c.04,.14,.07,.26,.09,.37,.03,.11,.05,.22,.07,.33,.02,.11,.04,.21,.05,.32,.01,.11,.03,.23,.05,.36,.01,.08,.03,.17,.05,.27s.05,.18,.1,.27c.04,.08,.11,.15,.19,.21,.08,.05,.18,.08,.31,.08h.1Zm-2.25,2.78l-.84,.86-.87-.88,.86-.88,.85,.87,.84-.86,.87,.88-.86,.88-.85-.87Z"/>
    <path class="cls-2" d="M48.25,122.99v1.44h-.1c-.29,0-.54-.04-.74-.12s-.38-.19-.52-.34c-.22,.16-.47,.28-.76,.35-.29,.07-.64,.11-1.06,.11h-.17v-1.44h.17c.41,0,.72-.07,.93-.21,.21-.14,.31-.34,.31-.62,0-.09-.01-.22-.04-.39-.02-.17-.07-.38-.15-.65l1.27-.31c.05,.17,.09,.32,.12,.44,.03,.13,.06,.25,.07,.35,.02,.11,.03,.2,.04,.29,0,.09,.02,.18,.02,.26,0,.08,.02,.18,.03,.27,.01,.1,.04,.19,.07,.27,.03,.08,.08,.15,.14,.2,.06,.05,.14,.08,.25,.08h.1Zm-1.74,3.94l-1-1.01,1-1.01,1,1.01-1,1.01Z"/>
    <path class="cls-2" d="M48.08,122.99h.43c.17,0,.35,0,.53,0,.18,0,.36-.02,.52-.04,.17-.02,.32-.06,.46-.11s.25-.12,.34-.21c.09-.09,.15-.21,.17-.35,.03-.14,.01-.32-.05-.53-.02-.08-.07-.17-.13-.28s-.15-.23-.26-.36-.22-.27-.36-.41c-.13-.14-.28-.29-.43-.44-.15-.15-.31-.3-.48-.45-.17-.15-.33-.3-.5-.44l.14-1.24,3.77-1.71,.54,1.22-2.98,1.41c.15,.1,.3,.23,.45,.37,.16,.14,.31,.3,.45,.47,.15,.17,.28,.35,.41,.54s.24,.38,.34,.58,.17,.4,.23,.6c.06,.2,.08,.4,.08,.59,0,.32-.06,.61-.17,.88-.11,.27-.27,.51-.47,.71s-.44,.36-.72,.47c-.28,.11-.58,.17-.91,.17h-1.4v-1.44Z"/>
    <path class="cls-2" d="M58.67,123.13c.01-.26,.06-.52,.14-.77,.08-.25,.18-.5,.31-.73,.13-.23,.29-.44,.46-.64,.18-.19,.38-.36,.59-.51,.22-.14,.45-.25,.7-.33,.25-.08,.51-.12,.78-.12,.2,0,.41,.03,.62,.09,.21,.06,.43,.15,.64,.26l-.5,1.34c-.14-.06-.28-.11-.41-.15-.13-.03-.25-.05-.36-.05-.19,0-.38,.04-.57,.12s-.38,.19-.55,.33c-.17,.14-.31,.3-.43,.48s-.19,.37-.22,.57c0,.09,.02,.16,.07,.21s.13,.1,.22,.14,.19,.07,.31,.1c.11,.03,.23,.06,.35,.09,.22,.06,.44,.12,.64,.19,.21,.06,.39,.15,.55,.25,.16,.1,.29,.24,.39,.41,.1,.17,.15,.39,.15,.66,0,.32-.06,.61-.18,.86-.12,.25-.28,.47-.49,.66-.21,.19-.44,.35-.72,.48s-.55,.24-.85,.32c-.3,.08-.6,.14-.9,.18-.31,.04-.59,.05-.87,.05-.5,0-.96-.07-1.39-.2-.42-.13-.79-.33-1.09-.58-.3-.26-.54-.58-.71-.96-.17-.38-.26-.82-.26-1.31,0-.08,0-.16,0-.24s.01-.15,.02-.22c.02-.33,.06-.65,.13-.95,.07-.3,.14-.57,.22-.81s.15-.43,.21-.58c.06-.15,.1-.23,.11-.26l1.13,.48c-.08,.2-.16,.4-.24,.6-.07,.2-.14,.41-.19,.61s-.1,.42-.13,.63c-.03,.21-.05,.43-.05,.65,0,.32,.06,.58,.19,.8s.29,.38,.5,.51c.21,.13,.45,.22,.71,.27,.27,.05,.55,.08,.83,.08,.38,0,.73-.03,1.06-.08,.33-.05,.62-.12,.87-.21,.25-.09,.45-.19,.61-.3,.15-.11,.24-.23,.27-.35-.19-.05-.39-.09-.6-.14-.21-.05-.42-.1-.62-.17s-.4-.15-.58-.24c-.18-.09-.34-.21-.48-.35-.14-.14-.24-.31-.32-.5-.07-.2-.1-.43-.08-.7Z"/>
    <path class="cls-2" d="M65.74,124.44c-.37,0-.69-.05-.95-.15-.26-.1-.47-.24-.64-.42-.16-.18-.28-.39-.36-.64s-.11-.51-.11-.8c0-.15,0-.33,0-.55,0-.22,0-.47,0-.75s0-.6,0-.94c0-.34-.01-.69-.02-1.03-.01-.34-.03-.67-.06-.99-.03-.32-.06-.59-.1-.83l1.34-.42c.04,.2,.07,.44,.1,.71,.03,.27,.05,.56,.06,.86,.01,.3,.03,.6,.03,.9,0,.3,.01,.58,.02,.84,0,.23,0,.47-.01,.72-.01,.25-.02,.49-.02,.72s0,.44,0,.62c.01,.19,.04,.33,.08,.42,.03,.07,.06,.12,.1,.16,.04,.04,.09,.06,.14,.08,.05,.02,.11,.03,.18,.03,.06,0,.14,0,.21,0h.12v1.44h-.13Z"/>
    <path class="cls-2" d="M65.77,122.99c.16,0,.31-.03,.44-.08,.14-.05,.27-.16,.39-.31,.12-.15,.24-.37,.35-.64,.11-.28,.21-.64,.31-1.09l1.19,.17s0,.04-.01,.06c-.02,.08-.04,.18-.06,.32-.03,.14-.05,.29-.07,.47s-.03,.34-.03,.49c0,.16,.02,.29,.05,.41,.03,.11,.09,.18,.18,.2,.09,.02,.18,0,.27-.06,.09-.06,.17-.15,.25-.27,.08-.12,.15-.25,.22-.41,.07-.16,.13-.32,.18-.48s.1-.33,.14-.48c.04-.16,.07-.3,.09-.42l1.18,.17c0,.08-.02,.18-.03,.3-.01,.13-.03,.26-.04,.4,0,.14-.01,.29-.01,.43s.02,.28,.05,.39,.08,.21,.14,.29c.06,.07,.15,.11,.26,.11,.1,0,.18-.03,.26-.1s.13-.15,.18-.26c.05-.11,.09-.23,.12-.37,.03-.14,.05-.28,.07-.42,.02-.14,.02-.28,.02-.42s0-.25-.01-.36l1.21-.17,.15,1.29c.02,.14,.06,.26,.12,.36,.06,.1,.13,.19,.21,.26,.08,.07,.17,.12,.26,.16,.09,.03,.17,.05,.26,.05h.14v1.44h-.14c-.29,0-.56-.05-.82-.16-.26-.1-.48-.28-.67-.52-.02,.02-.04,.05-.05,.06-.02,.02-.03,.04-.05,.05h0c-.16,.17-.35,.31-.56,.41-.21,.1-.44,.15-.68,.15-.27,0-.52-.06-.75-.18-.23-.12-.42-.28-.57-.48-.18,.2-.38,.36-.61,.49-.23,.12-.48,.19-.75,.19-.25,0-.49-.06-.71-.17-.22-.12-.4-.27-.54-.47-.16,.23-.36,.39-.6,.49-.24,.1-.53,.15-.88,.15h-.09v-1.44h.08Zm2.68-1.94h0s.01-.02,0,0Zm1.8-1.94l-.84,.86-.87-.88,.86-.88,.85,.87,.84-.86,.87,.88-.86,.88-.85-.87Zm.8-1.33l-.8,.81-.8-.82,.8-.81,.8,.82Z"/>
    <path class="cls-2" d="M73.99,122.99h.43c.17,0,.35,0,.53,0,.18,0,.36-.02,.52-.04,.17-.02,.32-.06,.46-.11,.14-.05,.25-.12,.34-.21,.09-.09,.15-.21,.17-.35s.01-.32-.05-.53c-.02-.08-.07-.17-.13-.28-.07-.11-.15-.23-.26-.36-.1-.13-.22-.27-.36-.41-.13-.14-.28-.29-.43-.44-.15-.15-.31-.3-.48-.45-.17-.15-.33-.3-.5-.44l.14-1.24,3.77-1.71,.54,1.22-2.98,1.41c.15,.1,.3,.23,.45,.37,.16,.14,.31,.3,.45,.47,.15,.17,.28,.35,.41,.54,.13,.19,.24,.38,.34,.58s.17,.4,.23,.6,.08,.4,.08,.59c0,.32-.06,.61-.17,.88-.11,.27-.27,.51-.47,.71-.2,.2-.44,.36-.71,.47-.28,.11-.58,.17-.91,.17h-1.4v-1.44Zm.32-6.07l3.43-1.46,.25,.54-3.71,1.6,.04-.68Z"/>
    <path class="cls-2" d="M82.49,124.44c-.24,0-.49-.04-.73-.13s-.47-.21-.67-.37-.37-.35-.49-.58-.19-.49-.19-.78c0-.61,.26-1.24,.79-1.89,.04-.05,.08-.09,.11-.13,.03-.03,.05-.06,.08-.09s.05-.05,.07-.07l.08-.08-.27-.24,.89-1.11c.15,.12,.33,.27,.54,.47,.21,.2,.46,.45,.74,.75,.77,.9,1.16,1.7,1.16,2.4,0,.3-.06,.57-.18,.8-.12,.23-.28,.43-.48,.58-.2,.16-.42,.27-.67,.35-.25,.08-.5,.12-.76,.12Zm.87-1.86c0-.09-.03-.2-.09-.32-.06-.12-.14-.24-.24-.37-.1-.13-.21-.26-.33-.39s-.24-.26-.36-.38c-.08,.09-.17,.19-.26,.31-.09,.11-.17,.23-.25,.36-.07,.13-.14,.26-.18,.4-.05,.14-.07,.27-.06,.4,0,.07,.04,.14,.1,.19,.07,.06,.14,.1,.24,.13,.09,.03,.19,.06,.29,.08,.1,.02,.19,.02,.26,.02,.09,0,.19,0,.29-.02,.1-.01,.2-.04,.28-.07,.08-.03,.16-.08,.21-.13s.09-.12,.09-.2Z"/>
    <path class="cls-2" d="M85.44,123.67c.01-.27,.03-.53,.04-.79,.01-.26,.02-.52,.02-.76,0-.25,0-.47,0-.68-.02-.43-.04-.81-.05-1.14-.02-.33-.03-.62-.05-.87-.02-.25-.03-.47-.05-.66s-.03-.36-.05-.52c-.02-.16-.04-.31-.06-.44-.02-.14-.04-.28-.07-.43l1.39-.47c.07,.41,.12,.82,.16,1.23s.07,.81,.09,1.19c.02,.38,.04,.73,.04,1.06,0,.33,.01,.6,.01,.83,0,.21,0,.44,0,.68,0,.24,0,.5,0,.76,0,.26-.01,.53-.02,.79,0,.27-.02,.53-.04,.78l-1.39,.22c.02-.25,.03-.51,.04-.78Z"/>
    <path class="cls-2" d="M89.89,121.71c.07,.22,.13,.45,.19,.69,.06,.23,.11,.47,.15,.7,.04,.23,.06,.45,.06,.65,0,.29-.04,.56-.11,.84-.08,.27-.18,.54-.32,.79-.14,.26-.3,.5-.5,.73-.19,.23-.4,.46-.64,.66-.23,.21-.48,.4-.75,.58-.27,.18-.54,.34-.83,.48l-.82-1.15c.22-.11,.43-.23,.65-.37,.22-.14,.43-.29,.63-.44s.39-.32,.56-.5,.33-.35,.46-.53c.13-.18,.23-.36,.31-.54,.07-.18,.11-.36,.11-.54,0-.13-.02-.27-.05-.42-.03-.15-.08-.31-.14-.48-.06-.17-.13-.35-.21-.55-.08-.19-.17-.4-.26-.62l1.3-.6c.06,.19,.13,.39,.2,.62Z"/>
    <path class="cls-2" d="M93.72,123.59c-.08,.28-.12,.56-.1,.84,.01,.21,.07,.41,.17,.6s.23,.35,.39,.49c.16,.14,.34,.25,.54,.34s.41,.13,.62,.13c.13,0,.27-.01,.41-.04,.15-.03,.29-.07,.44-.13,.15-.06,.29-.14,.42-.23,.13-.09,.25-.21,.36-.34,.1-.13,.19-.28,.25-.45,.06-.17,.09-.36,.09-.57,0-.24,0-.52-.02-.85-.01-.33-.03-.67-.05-1.04s-.04-.75-.07-1.14c-.03-.39-.05-.78-.08-1.15-.03-.45-.07-.9-.1-1.34-.03-.45-.07-.92-.11-1.4l1.43-.34c.02,.52,.04,1.02,.06,1.5s.04,.95,.05,1.42c.01,.4,.03,.8,.04,1.22,.01,.41,.03,.82,.04,1.2,.01,.1,.04,.19,.07,.27,.03,.09,.08,.16,.14,.23,.06,.07,.13,.12,.21,.15,.08,.04,.17,.06,.28,.06h.09v1.44h-.09c-.11,0-.23,0-.34-.01-.11,0-.22-.03-.33-.08,0,.39-.06,.73-.16,1.03-.1,.3-.23,.57-.39,.8-.16,.23-.35,.42-.56,.58s-.43,.29-.66,.39c-.23,.1-.47,.17-.7,.22-.24,.05-.46,.07-.68,.07-.25,0-.5-.03-.74-.09-.25-.06-.48-.15-.7-.26-.22-.12-.43-.26-.61-.42-.19-.17-.35-.36-.49-.57-.14-.21-.24-.45-.32-.71-.08-.26-.11-.54-.1-.83,0-.19,.01-.38,.03-.58,.02-.19,.05-.39,.09-.58,.04-.19,.09-.38,.15-.57,.06-.19,.14-.37,.23-.54l1.12,.55c-.13,.24-.23,.49-.31,.77Z"/>
    <path class="cls-2" d="M99.11,122.99h.32c.07,0,.14,0,.21,0,.07,0,.14-.01,.2-.02,.06,0,.11-.02,.14-.03-.05-.06-.11-.13-.16-.2-.05-.07-.1-.15-.14-.23-.04-.08-.07-.18-.1-.28s-.04-.21-.05-.32c0-.18,.01-.36,.06-.54,.04-.18,.11-.36,.19-.54,.08-.17,.19-.34,.3-.49s.25-.28,.4-.39c.15-.11,.3-.2,.47-.26,.17-.06,.34-.09,.53-.08,.26,.01,.5,.08,.73,.21,.22,.12,.42,.29,.58,.48,.16,.2,.29,.42,.39,.67s.14,.51,.14,.77c0,.21-.03,.42-.1,.62-.07,.2-.16,.39-.26,.58,.08,.02,.17,.03,.29,.04,.11,0,.26,.01,.44,.01h.09v1.44h-.17c-.19,0-.38,0-.55-.02-.18-.01-.35-.03-.52-.06-.17-.03-.34-.06-.51-.11-.17-.05-.34-.11-.53-.18-.11,.06-.25,.12-.42,.17-.17,.05-.35,.08-.54,.11-.2,.03-.4,.05-.62,.07s-.43,.02-.64,.02h-.17v-1.44Zm2.3-4.79l-.84,.86-.87-.88,.86-.88,.85,.87,.84-.86,.87,.88-.86,.88-.85-.87Zm.73,3.65c0-.1-.02-.19-.07-.28-.05-.09-.1-.17-.17-.24-.07-.07-.14-.13-.22-.18-.08-.05-.15-.08-.21-.1-.07,.02-.15,.04-.24,.08-.09,.04-.17,.1-.25,.17s-.15,.16-.2,.26c-.05,.1-.08,.22-.08,.36,0,.05,.02,.11,.07,.19,.05,.08,.11,.16,.18,.25,.07,.08,.16,.16,.25,.23s.19,.12,.29,.15c.07-.04,.15-.1,.23-.18,.08-.07,.15-.15,.21-.24,.06-.08,.11-.17,.15-.26,.04-.09,.06-.16,.06-.23Z"/>
    <path class="cls-2" d="M103.6,122.99h.6c.13,0,.26-.01,.42-.03,.15-.02,.29-.06,.42-.1,.13-.05,.24-.11,.33-.19,.09-.08,.13-.18,.13-.3,0-.07-.02-.18-.06-.33-.04-.14-.1-.31-.17-.48s-.15-.36-.23-.56c-.09-.19-.17-.38-.26-.56l1.28-.65c.08,.19,.17,.4,.25,.61,.08,.22,.16,.44,.22,.66,.07,.22,.12,.44,.16,.66,.04,.22,.06,.43,.06,.63,0,.36-.06,.68-.18,.94-.12,.26-.29,.48-.5,.65-.22,.17-.47,.29-.77,.37s-.63,.12-.99,.12h-.71v-1.44Zm1.43-3.68l-1-1.01,1-1.01,1,1.01-1,1.01Z"/>
    <path class="cls-2" d="M109.34,126.25c.42-.09,.81-.19,1.15-.32s.65-.27,.91-.43c.26-.16,.48-.33,.65-.51,.17-.18,.29-.36,.37-.55-.13,0-.26,0-.41,0-.14,0-.26-.01-.35-.02-.3-.02-.56-.08-.81-.17-.24-.09-.45-.21-.63-.37-.18-.16-.31-.35-.41-.57s-.14-.48-.14-.78c0-.19,.02-.38,.06-.57,.04-.19,.09-.38,.17-.57s.16-.36,.27-.52c.11-.16,.23-.31,.37-.43,.14-.12,.29-.22,.46-.29,.17-.07,.34-.11,.54-.11,.27,0,.53,.06,.75,.18,.23,.12,.43,.28,.6,.49,.17,.2,.32,.44,.45,.7,.13,.26,.23,.54,.3,.82s.13,.57,.15,.85c.03,.28,.03,.54,0,.78-.04,.36-.11,.69-.24,1s-.28,.6-.47,.86-.41,.5-.66,.72c-.25,.21-.52,.4-.82,.57s-.6,.3-.94,.41c-.33,.11-.67,.19-1.02,.25l-.33-1.4Zm2.2-4.78c-.06-.01-.13,0-.22,.07s-.16,.13-.22,.23c-.07,.1-.13,.2-.17,.32-.05,.12-.07,.23-.07,.33s.03,.19,.09,.26c.06,.07,.14,.12,.24,.17,.1,.04,.21,.08,.33,.1,.12,.02,.25,.04,.37,.05,.12,0,.24,.01,.35,.01h.28c-.04-.19-.1-.37-.16-.54-.06-.17-.13-.33-.21-.47-.08-.14-.17-.25-.27-.34-.1-.09-.22-.15-.34-.17Z"/>
    <path class="cls-2" d="M118.13,123.59c-.08,.28-.12,.56-.1,.84,.01,.21,.07,.41,.17,.6s.23,.35,.39,.49c.16,.14,.34,.25,.54,.34s.41,.13,.62,.13c.13,0,.27-.01,.41-.04,.15-.03,.29-.07,.44-.13,.15-.06,.29-.14,.42-.23,.13-.09,.25-.21,.36-.34,.1-.13,.19-.28,.25-.45,.06-.17,.09-.36,.09-.57,0-.24,0-.52-.02-.85-.01-.33-.03-.67-.05-1.04s-.04-.75-.07-1.14c-.03-.39-.05-.78-.08-1.15-.03-.45-.07-.9-.1-1.34-.03-.45-.07-.92-.11-1.4l1.43-.34c.02,.52,.04,1.02,.06,1.5s.04,.95,.05,1.42c.01,.4,.03,.8,.04,1.22,.01,.41,.03,.82,.04,1.2,.01,.1,.04,.19,.07,.27,.03,.09,.08,.16,.14,.23,.06,.07,.13,.12,.21,.15,.08,.04,.17,.06,.28,.06h.09v1.44h-.09c-.11,0-.23,0-.34-.01-.11,0-.22-.03-.33-.08,0,.39-.06,.73-.16,1.03-.1,.3-.23,.57-.39,.8-.16,.23-.35,.42-.56,.58s-.43,.29-.66,.39c-.23,.1-.47,.17-.7,.22-.24,.05-.46,.07-.68,.07-.25,0-.5-.03-.74-.09-.25-.06-.48-.15-.7-.26-.22-.12-.43-.26-.61-.42-.19-.17-.35-.36-.49-.57-.14-.21-.24-.45-.32-.71-.08-.26-.11-.54-.1-.83,0-.19,.01-.38,.03-.58,.02-.19,.05-.39,.09-.58,.04-.19,.09-.38,.15-.57,.06-.19,.14-.37,.23-.54l1.12,.55c-.13,.24-.23,.49-.31,.77Z"/>
    <path class="cls-2" d="M127.5,124.42c-.15,0-.33,0-.54-.03-.2-.03-.41-.08-.63-.14-.21-.06-.42-.14-.63-.23-.2-.09-.38-.18-.53-.29-.19,.24-.41,.42-.67,.53-.25,.11-.55,.17-.9,.17h-.09v-1.44h.09c.2,0,.36-.04,.5-.12,.13-.08,.25-.19,.35-.31,.1-.13,.18-.27,.26-.43s.15-.31,.22-.46c.09-.18,.19-.37,.31-.55,.11-.19,.24-.35,.39-.5s.31-.27,.49-.36c.18-.09,.39-.14,.62-.14,.3,0,.55,.05,.75,.16s.37,.25,.51,.44,.25,.4,.33,.64c.08,.24,.15,.5,.21,.78,.05,.27,.1,.48,.15,.64,.05,.16,.1,.23,.16,.23h.14v1.44h-.17c-.18,0-.33-.04-.46-.13-.13-.08-.24-.19-.35-.3-.04,.05-.08,.09-.13,.14-.04,.05-.09,.09-.13,.13s-.08,.07-.13,.1-.09,.04-.13,.04Zm-.79-2.92c-.09,0-.17,.03-.24,.09-.07,.06-.14,.14-.21,.23-.06,.09-.12,.19-.17,.31-.05,.11-.1,.22-.14,.32,.1,.07,.22,.14,.35,.2,.13,.06,.27,.11,.42,.16,.14,.05,.29,.08,.43,.11s.27,.05,.39,.06c-.04-.17-.08-.34-.13-.51-.05-.17-.1-.33-.17-.47-.06-.14-.14-.26-.22-.35-.09-.09-.19-.14-.3-.14Z"/>
    <path class="cls-2" d="M128.81,122.99h.95c.48,0,.93-.03,1.33-.09,.41-.06,.78-.14,1.14-.24,.35-.1,.69-.22,1-.35,.31-.13,.63-.27,.93-.41-.2-.06-.41-.13-.61-.21-.21-.08-.41-.17-.61-.25-.21-.08-.41-.15-.61-.2s-.41-.08-.61-.08c-.14,0-.27,.04-.41,.11-.13,.08-.25,.16-.36,.26-.11,.1-.2,.19-.27,.29s-.12,.16-.13,.19l-1.04-.68c.11-.2,.25-.4,.4-.6,.16-.19,.33-.37,.51-.52,.19-.15,.39-.27,.61-.36,.22-.09,.44-.14,.68-.14,.18,0,.35,.02,.53,.06s.35,.09,.53,.15c.17,.06,.35,.13,.52,.21s.34,.16,.51,.23c.16,.08,.32,.15,.48,.23,.16,.07,.33,.14,.5,.21s.35,.11,.53,.15c.18,.04,.38,.06,.58,.06l-.11,1.4-.64,.31c-.26,.13-.52,.26-.78,.39-.26,.14-.52,.27-.78,.39s-.54,.25-.83,.36c-.28,.11-.58,.21-.89,.3-.31,.08-.64,.15-.99,.2-.35,.05-.72,.08-1.11,.08h-.95v-1.44Z"/>
  </g>
</svg>